<svg xmlns="http://www.w3.org/2000/svg" width="300" height="300" viewBox="0 0 640 640" enable-background="new 0 0 640 640"><path fill="#8A6753" d="M187.083 433.032c-4.133-.065-7.721-1.632-10.389-4.527-4.633-5.032-5.104-12.545-5.062-15.869-.946-3.152-4.202-13.544-11.243-31.957-7.706-20.153-6.287-33.643-5.522-37.848-1.082-5.855-3.288-23.485 7.531-30.495 2.086-1.352 4.396-2.038 6.862-2.038 10.864 0 20.335 13.678 22.979 17.87l.706 1.119 11.77 90.954-.115 .808c-.592 4.147-4.92 11.987-17.063 11.987l-.454-.004z"/><linearGradient id="SVGID_1_" gradientUnits="userSpaceOnUse" x1="179.307" y1="316.298" x2="179.307" y2="427.037"><stop offset=".483" stop-color="#FFCCAB"/><stop offset="1" stop-color="#FFB49B"/></linearGradient><path fill="url(#SVGID_1_)" d="M187.166 331.369s-12.504-19.829-21.504-13.998c-9 5.832-4.667 25.498-4.667 25.498s-3.667 13.001 5 35.667l11.667 33.333s-.991 14.995 9.504 15.164l11.496-6.831-11.496-88.833z"/><path fill="#8A6753" d="M183.696 348.212s-12.035-25.681-19.035-19.845c0 0-.667 18.835 2.667 24.835l4-17.833s10.403 8.186 12.368 12.843z"/><path fill="#8A6753" d="M184.001 357.869s-13.672 17.666-7.339 24.333 8.387-7.055 12.193 2.64l-4.854-26.973z"/><path fill="#8A6753" d="M452.396 433.036c-12.144 0-16.472-7.84-17.062-11.986l-.116-.808 11.771-90.955 .706-1.119c2.643-4.191 12.111-17.87 22.979-17.87 2.468 0 4.776 .686 6.863 2.038 10.821 7.012 8.613 24.638 7.529 30.495 .767 4.204 2.187 17.69-5.521 37.848-7.035 18.398-10.296 28.801-11.244 31.957 .043 3.324-.429 10.837-5.061 15.868-2.668 2.896-6.256 4.463-10.375 4.528l-.469 .004z"/><linearGradient id="SVGID_2_" gradientUnits="userSpaceOnUse" x1="460.627" y1="316.298" x2="460.627" y2="427.037"><stop offset=".483" stop-color="#FFCCAB"/><stop offset="1" stop-color="#FFB49B"/></linearGradient><path fill="url(#SVGID_2_)" d="M452.769 331.369s12.504-19.829 21.504-13.998c9 5.832 4.668 25.498 4.668 25.498s3.666 13.001-5 35.667c-8.668 22.666-11.668 33.333-11.668 33.333s.992 14.995-9.504 15.164l-11.496-6.831 11.496-88.833z"/><path fill="#8A6753" d="M456.238 348.212s12.034-25.681 19.034-19.845c0 0 .668 18.835-2.666 24.835l-4-17.833s-10.402 8.186-12.368 12.843z"/><path fill="#8A6753" d="M455.934 357.869s13.673 17.666 7.339 24.333c-6.332 6.667-8.387-7.055-12.193 2.64l4.854-26.973z"/><path fill="#8A6753" d="M330.715 560.003c-2.049 0-4.013-.036-5.9-.071l-.195-.004c-1.604-.029-3.152-.059-4.65-.059-1.497 0-3.044 .028-4.648 .059l-.196 .004c-1.888 .035-3.851 .071-5.901 .071-9.354 0-20.877-.716-35.421-6.024-10.731-3.918-13.065-5.868-17.496-10.884-3.081-3.487-7.736-5.757-21.845-16.442-32.43-24.562-44.229-77.764-44.716-80.017l-.057-.263-6.568-53.04-2.747-86.964c-.175-2.877-.266-5.756-.266-8.5 0-81.62 13.092-131.379 41.2-156.597 25.933-23.267 61.259-23.267 98.66-23.267s72.727 0 98.66 23.267c28.108 25.218 41.2 74.978 41.2 156.597 0 2.763-.087 5.552-.267 8.526-.106 6.608-1.123 65.929-2.751 86.938-1.033 13.318-6.315 51.256-6.54 52.864l-.03 .22-.047 .217c-.487 2.256-12.301 55.467-44.716 80.019-14.115 10.691-18.767 12.958-21.845 16.442-4.431 5.016-6.766 6.967-17.496 10.884-14.544 5.309-26.066 6.024-35.419 6.024h-.003z"/><path fill="#2E1E00" d="M476.568 248.205c-.257-.871-.686-2.328-.602-2.785l.196-.888-.129-.9c-.491-3.435-1.075-6.962-1.737-10.485-2.413-12.822-5.933-26.077-10.759-40.522l-.037-.108c-1.156-3.214-2.358-6.368-3.573-9.373l-.086-.199c-2.161-4.744-4.655-9.451-7.625-14.389-1.327-2.209-2.778-4.505-4.312-6.825l-.105-.152c-11.923-16.659-26.506-35.985-44.259-53.014l-.221-.211-.244-.184c-2.434-1.821-4.97-3.522-7.537-5.056-7.94-4.741-16.521-8.076-25.508-9.916-2.103-.744-3.919-1.531-5.54-2.403-.308-.184-.617-.354-.926-.508l-1.374 2.567-.201-.088c-2.171-.959-4.296-2.011-6.546-3.125-7.746-3.834-15.755-7.798-25.534-7.798-.897 0-1.806 .035-2.702 .103-3.173 .119-6.539 .461-10.008 1.018-13.444 2.158-26.624 7.107-39.369 11.893-5.865 2.203-11.404 4.283-16.632 5.951l-.483 .154-.442 .249c-3.17 1.777-6.325 3.625-9.378 5.492-16.406 10.031-30.899 21.186-43.077 33.154l-.273 .268-.229 .307c-1.247 1.671-2.54 3.484-4.068 5.705-3.668 5.331-7.342 11.037-11.23 17.446-1.83 3.015-3.583 5.985-5.215 8.83-4.397 6.667-8.007 13.897-11.033 22.097-.951 2.577-1.831 5.226-2.616 7.875l-.048 .176c-5.314 20.664-7.772 38.584-7.736 56.352-.013 2.1-.022 4.242-.028 6.398-.012 4.305-.012 8.674-.012 12.894-.005 2.432 .095 4.989 .297 7.599 .607 10.374 2.721 19.625 4.958 29.419 .504 2.207 1.013 4.436 1.492 6.62 .418 2.077 .899 4.225 1.469 6.566 1.221 5.01 2.643 10.027 4.019 14.879 .407 1.437 .812 2.865 1.209 4.284 .552 1.974 .96 4.089 1.392 6.329 .764 3.962 1.553 8.059 3.259 11.791l1.814 3.971 3.76-1.137v-170.657h5.573l5-23.709 16.024-9v-8.818h203.733v8.818l15.943 6 6 26.709h9.807v164.568l6.17-1.475c-.097-2.271 1.549-6.461 2.871-9.828 .98-2.496 1.906-4.854 2.462-7.043 1.372-5.408 1.547-10.312 1.716-15.055 .074-2.087 .151-4.245 .329-6.447 .279-3.449 1.659-6.961 3.119-10.679 .55-1.401 1.119-2.85 1.632-4.312 1.795-5.116 4.164-12.927 5.257-21.084 .339-2.539 .728-5.5 1.052-8.597 1.111-6.699 .987-12.74 .299-18.32l1.086-3.258c1.004-3.013 .168-5.853-.504-8.134z"/><path fill="#FFCCAB" d="M453.828 297.869c0-173.864-59.932-173.864-133.86-173.864s-133.86 0-133.86 173.864c0 2.772 .094 5.521 .261 8.252l2.74 86.748c1.625 13.125 6.501 52.5 6.501 52.5s11.447 53 42.474 76.5 18.524 19.445 37.775 26.473 33.025 5.527 44.11 5.527c11.086 0 24.859 1.5 44.11-5.527s6.749-2.973 37.775-26.473l42.474-76.5s5.478-39.314 6.5-52.5c1.677-21.634 2.739-86.748 2.739-86.748 .166-2.73 .261-5.48 .261-8.252z"/><path opacity=".5" fill="#E3B598" d="M382.596 433.536c-7.373-5.666-37.375-9.965-37.375-9.965l-23.143-5.091 .075-.944-2.185 .48-2.185-.48 .075 .944-23.143 5.091s-30.002 4.299-37.375 9.965-7.291 11.334-7.999 16c0 0 26.626 3.667 47.959-5l22.667 2.333 22.667-2.333c21.333 8.667 47.959 5 47.959 5-.706-4.666-.624-10.334-7.997-16z"/><path opacity=".5" fill="#E3B598" d="M451.079 389.233s-30.365 85.635-49.225 86.969c0 0-16.189 37.667-35.024 38.667s-35.146 1.997-46.861 2c-11.628 .003-27.677-1-46.512-2l-35.024-38.667c-18.859-1.334-49.225-86.969-49.225-86.969l-.209 .152 .11 3.483c1.625 13.125 6.501 52.5 6.501 52.5s11.447 53 42.474 76.5 18.524 19.445 37.775 26.473 33.025 5.527 44.11 5.527c11.086 0 24.859 1.5 44.11-5.527s6.749-2.973 37.775-26.473l42.474-76.5s5.478-39.314 6.5-52.5c.085-1.1 .169-2.321 .251-3.635z"/><circle fill="#5EAF9F" stroke="#2A3E97" cx="255.857" cy="324.369" r="11"/><circle fill="#1A1818" cx="255.857" cy="324.369" r="4.5"/><circle fill="#fff" cx="257.857" cy="320.369" r="2.998"/><circle fill="#5EAF9F" stroke="#2A3E97" cx="389.455" cy="328.869" r="11"/><circle fill="#1A1818" cx="389.455" cy="328.869" r="4.5"/><circle fill="#fff" cx="391.455" cy="324.869" r="2.998"/><path fill="#FFCCAB" d="M242.357 321.871s17.842-5.001 26.796 .998l-2.296-15.75h-20.25l-4.25 14.752z"/><path fill="#FFCCAB" d="M401.854 326.746s-17.842-5.002-26.796 .998l2.296-15.75h20.25l4.25 14.752z"/><path fill="#5C3E00" stroke="#5C3E00" stroke-width="2" d="M279.857 327.867s-18-18.498-49.75-2.998l-6.75 6.5s28.25-21.255 56.5-3.502z"/><path opacity=".5" fill="none" stroke="#A1806D" stroke-width="2" stroke-miterlimit="10" d="M283.357 323.367s-23.75-23.253-58.75 0"/><path opacity=".5" fill="#A1806D" d="M294.357 336.619s-10.5 16-19.25 19.5c0 0 15.75-2.75 19.25-19.5z"/><path fill="#5C3E00" d="M296.357 304.039s-47.75-16.9-81.25 1.901l-8 5.704-1.5-11.196 25.25-17.745s44.25 7.816 56.75 6.971c0 0 8.75 8.45 8.75 14.365z"/><path fill="#5C3E00" stroke="#5C3E00" stroke-width="2" d="M364.079 332.867s18-18.498 49.75-2.998l6.75 6.5s-28.25-21.255-56.5-3.502z"/><path opacity=".5" fill="none" stroke="#A1806D" stroke-width="2" stroke-miterlimit="10" d="M360.579 328.367s23.75-23.253 58.75 0"/><path opacity=".5" fill="#A1806D" d="M347.58 336.619s10.5 16 19.25 19.5c0 0-15.75-2.75-19.25-19.5z"/><path fill="#5C3E00" d="M347.579 310.264s47.75-16.9 81.25 1.901l8 5.704 1.5-11.196-25.25-17.745s-44.25 7.816-56.75 6.971c0 0-8.75 8.45-8.75 14.365z"/><path fill="#8A6753" d="M319.969 433.033c-14.893 0-22.827-3.472-25.76-5.128-9.261-2.335-15.065-6.986-17.254-13.828-4.322-13.51 8.417-29.316 11.312-32.673 16.031-25.831 13.667-56.173 13.42-57.736l-.752-2.508 12.137 .207h13.248l12.677-.205-.746 2.502c-.244 1.578-2.55 32.009 13.42 57.74 2.896 3.357 15.634 19.166 11.312 32.673-2.19 6.843-7.994 11.494-17.254 13.828-2.934 1.657-10.868 5.128-25.76 5.128z"/><linearGradient id="SVGID_3_" gradientUnits="userSpaceOnUse" x1="319.968" y1="319.2" x2="319.968" y2="427.034"><stop offset=".483" stop-color="#FFCCAB"/><stop offset="1" stop-color="#FFB49B"/></linearGradient><path fill="url(#SVGID_3_)" d="M339.595 319.2s-11.091 36.711 7.242 65.792c0 0 26.975 30.346-3.424 37.3 0 0-6.691 4.741-23.444 4.741l-23.444-4.741c-30.398-6.954-3.424-37.3-3.424-37.3 18.333-29.081 6.982-65.792 6.982-65.792h39.512z"/><linearGradient id="SVGID_4_" gradientUnits="userSpaceOnUse" x1="319.968" y1="370.202" x2="319.968" y2="423.571"><stop offset=".655" stop-color="#FFCCAB"/><stop offset=".868" stop-color="#FFE0CD"/><stop offset=".943" stop-color="#FFCCAB"/></linearGradient><path fill="url(#SVGID_4_)" d="M334.274 370.202s5.637 43.577 0 49.667c-4 4.322-7.376 3.667-14.305 3.667-6.93 0-10.308 .655-14.308-3.667-5.636-6.09 0-49.667 0-49.667h28.613z"/><g opacity=".5" fill="#A1806D"><path d="M378.522 408.202s23.859 24.12 19.43 43.666c0 0 16.237-17.051-19.43-43.666z"/><path d="M261.415 408.202s-23.859 24.12-19.43 43.666c0 0-16.237-17.051 19.43-43.666z"/></g><path fill="#DC9493" d="M344.439 458.285l-24.471 4.562-24.472-4.562-29.146-4.052 19.521 17.303c12.908 9.592 25.44 8.021 34.097 8.021 8.655 0 21.188 1.571 34.096-8.021l19.521-17.303-29.146 4.052z"/><path opacity=".5" fill="#A1806D" d="M432.828 222.869s-1.5 35.445 3.5 47.473c0 0-11.214-12.914-3.5-47.473z"/><path opacity=".5" fill="#A1806D" d="M210.648 222.869s1.5 35.445-3.5 47.473c0 0 11.214-12.914 3.5-47.473z"/><path fill="#5C3E00" d="M189.145 363.839c-6.817-25.081 6.183-49.081 4.844-74.406 .078-3.316 .104-6.652 .12-9.998 .051-10.036 .026-20.151 1.11-30.035-.097-3.484-.234-6.982-.415-10.499-.348-2.915-.629-5.917-.791-8.962-3.686-25.182 4.314-58.182 29.314-67.182 5.716-2.45 11.767-3.066 17.877-2.531 1.527 .134 3.059 .34 4.592 .625 7.765 3.453 15.647 6.929 23.855 8.942 1.646 .41 3.305 .761 4.998 1.089 3.136 .575 6.364 .995 9.653 1.271 1.644 .138 3.309 .246 4.996 .335 6.812 .507 13.458 .332 20.018-.238 1.64-.143 3.274-.31 4.904-.496 2.416-.3 4.83-.577 7.242-.844 1.207-.133 2.415-.259 3.639-.345 6.891 .076 13.905 .602 20.854 .647 1.738 .012 3.472-.007 5.199-.07 14.538 1.291 26.406-7.411 39.853-10.539 1.682-.391 3.387-.695 5.126-.882 1.919-.396 3.817-.625 5.689-.712 19.505-2.253 33.505 13.747 37.352 31.704 .336 1.003 .651 2.01 .946 3.022 1.478 5.045 2.445 10.224 3.064 15.325 .224 1.158 .412 2.324 .564 3.496 .456 3.517 .585 7.093 .353 10.686-.036 3.719-.409 7.431-1.146 11.088-.015 3.185 0 6.353 .042 9.513 .294 22.117 1.91 43.809 3.804 66.332 .033 2.793-.028 5.606-.071 8.414-.086 5.617-.1 11.217 .856 16.613 .774 4.369 2.544 8.58 3.082 13 .528 4.349-.117 9.227 1.585 12.974-.223-5.208 4.157-13.098 5.481-18.315 1.814-7.148 1.314-13.349 1.908-20.676 .459-5.663 3.167-10.972 5.017-16.242 2.208-6.294 4.128-13.443 5.019-20.091 .364-2.724 .741-5.624 1.051-8.606 1.599-9.488 .599-17.488-1.401-26.488 1 2 2 3 3 4 1-3-2-7-1.243-10.419-.493-3.447-1.063-6.869-1.702-10.268-.854-4.532-1.83-9.024-2.914-13.481-.543-2.229-1.112-4.449-1.706-6.661-.443-3.017-1.043-5.962-1.779-8.85-2.682-8.422-6.085-16.434-10.053-24.126-.793-1.538-1.609-3.063-2.447-4.577-7.155-13.617-17.155-25.617-26.877-38.456-.84-1.016-1.686-2.029-2.536-3.039-2.552-3.03-5.148-6.034-7.778-9.022-2.126-2.364-4.286-4.69-6.486-6.973-2.201-2.283-4.441-4.522-6.727-6.714-2.289-1.713-4.657-3.304-7.104-4.766-7.345-4.385-15.413-7.603-24.273-9.376-2.561-.889-5.04-1.938-7.373-3.271 2 1 3.988 3.012 4.983 5.017-2.153-.681-4.261-1.517-6.344-2.437-10.413-4.603-20.112-11.383-32.476-10.401-3.141 .113-6.314 .451-9.501 .962-19.121 3.069-38.707 12.383-55.273 17.67-3.096 1.736-6.171 3.536-9.215 5.397-5.708 3.49-11.309 7.198-16.739 11.119-1.81 1.307-3.601 2.637-5.371 3.99-29.065 20.683-46.065 52.683-55.565 86.487-.73 3.062-1.367 6.147-1.908 9.253-.563 3.019-1.069 6.049-1.51 9.096-1.322 9.142-2.062 18.438-2.042 28.029-.013 2.094-.022 4.229-.028 6.38-.012 4.301-.012 8.665-.012 12.892-.005 2.426 .098 4.842 .286 7.247 .179 3.075 .5 6.068 .923 9.018 .423 2.95 .948 5.856 1.533 8.755 5.258 19.526 9.258 40.526 16.445 60.303l-.371 .303z"/><path opacity=".5" fill="#A1806D" d="M244.857 218.721s117.806-13.992 147.472-5.899c0-.001-63.276-15.628-147.472 5.899z"/><path fill="#B55250" d="M319.969 458.285l-8.333-3.083s-25.502 2.333-32.751 0l-16.916-4s10.83 10.832 33.415 7.083c0 0 7.585 4.584 24.585 4.584l24.585-4.584c22.585 3.749 33.415-7.083 33.415-7.083s-9.667 1.667-16.916 4h-32.751l-8.333 3.083z"/><path fill="#A28B63" d="M447.964 210.206c2.817 6.303 1.842 18.896 2.221 26.378 .312 6.177-.287 12.754 1.066 18.789 .269-2.957 .413-7.401 1.312-9.573 .204 2.479 .362 5.006 .925 7.431 .095-1.277 .284-2.546 .362-3.825 .335 2.022 .439 4.07 .996 6.035 .286-1.679 .403-3.479 .683-5.172 .608 2.258 .891 4.626 1.567 6.876 0 .047 .304-2.027 .337-2.701 2.166 6.964 4.603 15.3 3.543 22.756 5.092-12.701 3.354-30.436 .926-43.47-2.357-12.656-4.73-27.944-10.594-39.507 .608 5.056 2.165 10.049 2.773 15.196 .46 3.902 .648 8.172 1.795 11.936-.691-2.186-1.647-4.677-2.644-6.579 .521 6.384 2.241 12.667 2.926 19.04-.99-2.237-1.936-4.737-2.241-7.185 .022 4.46 1.678 8.985 1.636 13.466-.68-2.646-1.227-5.945-2.436-8.223-.358 2.569 .058 7.41 .643 9.112l-5.796-30.78z"/><path fill="#A28B63" d="M178.328 214.203c0 10.417-.894 20.711-1 31.083-.076 7.367-.236 17.694 2.351 24.636-.103-1.881-.423-5.759-.283-8.388 1.374 2.192 1.498 5.603 2.307 8.231-.581-1.727-.855-3.604-.732-5.425 .973 3.107 1.461 6.604 3.048 9.457-.074-.931 .117-1.918 .036-2.825 1.02 2.54 1.725 5.607 2.865 7.9 1.059-14.119-2.25-28.437-1.608-42.62 .51-11.268-.052-22.731 1.017-33.955-.227 9.737-3.735 19.121-3.65 28.832-.695-2.637-1.04-5.497-1.015-8.225-.004 4.502 .19 9.099-.069 13.564-.69-1.817-1.001-3.827-1.282-5.768 .057 5.033 .659 11.955 .35 16.167l-2.335-32.664z"/><path fill="#A28B63" d="M285.156 130.837c-2.625-5.027-4.537-11.497-4.066-17.246-.073 4.365 1.712 9.731 4.347 13.165-.206-2.933-.854-5.867-.688-8.822 .753 4.778 2.771 8.908 5.354 12.826-1.235-8.874-4.729-17.281-3.365-26.421 2.46 16.343 9.692 27.276 18.623 40.435-.163-3.644-2.592-7.054-3.617-10.49 .722 2.277 1.868 5.109 3.702 6.783-.005-1.986-.463-4.035-1.379-5.775 1.099 3.415 3.586 6.827 6.645 8.792-1.006-6.479-5.138-13.814-7.305-20.173-1.766-5.181-2.983-11.028-5.268-15.71 2.619 8.526 9.374 17.872 14.974 24.892-.227-.946-.312-1.95-.639-2.817 .907 2.463 2.618 5.665 4.565 7.5-.091-1.04 .027-1.82-.316-2.844 1.709 4.426 4.431 8.491 5.967 12.922 1.044 3.011 1.021 6.451 2.606 9.324-.982-1.68-2.057-3.345-3.162-4.937 .088 1.939 1.201 3.715 1.992 5.466-2.078-7.434-10.24-5.628-4.642-.266-1.152-1.686-2.425-3.726-4.369-4.241 .545 2.543 1.521 5.09 3.036 7.208-2.105-1.801-4.46-4.448-7.358-4.519 .226 1.802 1.512 3.393 2.509 4.921-15.62-3.375-21.299-16.861-28.146-29.973z"/><path fill="#A28B63" d="M272.59 149.163c-4.876 2.421-13.034-11.218-14.908-15.159-2.046-4.303-2.617-8.572-2.093-13.231-3.385 4.234-2.237 12.099 .075 16.473-3.138-5.108-3.948-9.6-3.966-15.562-.652 5.408 .041 10.333 1.225 15.584-1.083-3.661-4.297-6.345-5.166-10.206-.677-3.009-.03-6.058-.04-9.058-4.496 3.094-1.386 12.44-.858 16.836-.768-1.956-1.582-4.37-2.071-6.236 .35 2.652 .864 5.4 .809 8.059-1.558-1.496-1.911-4.222-2.139-6.287-.612 2.393 .52 5.56 .986 8.131-.084-.959-2.138-10.161-3.102-10.491-3.389-1.16-1.572 11.538-1.232 13.275 1.364 6.983 4.33 15.917 11.268 19.275-1.055-1.464-2.404-2.957-3.257-4.55 1.26 1.524 3.585 3.909 5.974 4.565-.315-1.214-1.008-2.448-1.816-3.46 .84 1.605 2.364 3.668 4.218 3.741 .225-1.166-.022-2.75-.383-3.492 2.251 2.254 5.143 3.339 8.255 2.948 .291-2.699-3.044-5.97-3.806-7.573 1.899 1.596 4.244 3.542 6.832 3.35 .01-1.302-.013-2.148-1.103-2.888 1.918 1.233 10.385 3.077 9.902-.924 1.117 1.376 3.563 3.676 4.266 1.119l-7.87-4.239z"/><path fill="#A28B63" d="M358.942 154.536c7.471-2.658 12.103-17.647 14.333-24.326 2.488-7.453 4.082-15.42 2.661-23.253 1.803 5.731 1.703 11.502 1.666 17.476 1.752-3.951 3.328-7.528 3.322-12.092 .242 1.502 .422 3.284 .926 4.531 1.094-3.581 2.411-7.864 2.75-11.579 .664 4.171 .973 8.401 2.083 12.505 .921-2.307 1.066-5.008 .918-7.523 3.19 15.935 2.858 38.987-11.94 49.583 .691-3.06 1.304-6.268 2.311-9.231-1.683 3.348-4.28 6.687-7.666 8.173 .799-3.571 3.105-5.642 4.876-8.657-2.79 1.868-5.234 4.867-7.867 6.664-.189-2.803 2.327-5.659 4.2-7.581-3.096 1.698-5.143 4.986-7.861 7.223-.256-2.55 1.103-5.162 3.187-6.624-3.052 2.358-5.124 5.823-8.897 7.045l.998-2.334z"/></svg>