<?xml version="1.0" encoding="UTF-8" standalone="no"?>
<svg
   xmlns:dc="http://purl.org/dc/elements/1.1/"
   xmlns:cc="http://creativecommons.org/ns#"
   xmlns:rdf="http://www.w3.org/1999/02/22-rdf-syntax-ns#"
   xmlns:svg="http://www.w3.org/2000/svg"
   xmlns="http://www.w3.org/2000/svg"
   xmlns:sodipodi="http://sodipodi.sourceforge.net/DTD/sodipodi-0.dtd"
   xmlns:inkscape="http://www.inkscape.org/namespaces/inkscape"
   width="155.66866"
   height="224.1375"
   viewBox="0 0 332.09313 478.15999"
   enable-background="new 0 0 640 640"
   id="svg2"
   version="1.1"
   inkscape:version="0.48.4 r9939"
   sodipodi:docname="kaihendry.svg">
  <metadata
     id="metadata122">
    <rdf:RDF>
      <cc:Work
         rdf:about="">
        <dc:format>image/svg+xml</dc:format>
        <dc:type
           rdf:resource="http://purl.org/dc/dcmitype/StillImage" />
        <dc:title></dc:title>
      </cc:Work>
    </rdf:RDF>
  </metadata>
  <defs
     id="defs120" />
  <sodipodi:namedview
     pagecolor="#ffffff"
     bordercolor="#666666"
     borderopacity="1"
     objecttolerance="10"
     gridtolerance="10"
     guidetolerance="10"
     inkscape:pageopacity="0"
     inkscape:pageshadow="2"
     inkscape:window-width="761"
     inkscape:window-height="748"
     id="namedview118"
     showgrid="false"
     fit-margin-top="0"
     fit-margin-left="0"
     fit-margin-right="0"
     fit-margin-bottom="0"
     inkscape:zoom="0.78666667"
     inkscape:cx="-95.667391"
     inkscape:cy="112.50141"
     inkscape:window-x="0"
     inkscape:window-y="18"
     inkscape:window-maximized="0"
     inkscape:current-layer="svg2" />
  <path
     d="m 33.162056,351.189 c -4.133,-0.065 -7.721,-1.632 -10.389,-4.527 -4.633,-5.032 -5.104,-12.545 -5.062,-15.869 -0.946,-3.152 -4.202,-13.544 -11.2429997,-31.957 -7.706,-20.153 -6.28699996,-33.643 -5.52199996,-37.848 -1.082,-5.855 -3.28800004,-23.485 7.53099996,-30.495 2.0859997,-1.352 4.3959997,-2.038 6.8619997,-2.038 10.864,0 20.335,13.678 22.979,17.87 l 0.706,1.119 11.77,90.954 -0.115,0.808 c -0.592,4.147 -4.92,11.987 -17.063,11.987 l -0.454,-0.004 z"
     id="path4"
     inkscape:connector-curvature="0"
     style="fill:#8a6753" />
  <linearGradient
     id="SVGID_1_"
     gradientUnits="userSpaceOnUse"
     x1="179.30701"
     y1="316.298"
     x2="179.30701"
     y2="427.03699"
     gradientTransform="translate(-153.92094,-81.843)">
    <stop
       offset=".483"
       stop-color="#FFCCAB"
       id="stop7" />
    <stop
       offset="1"
       stop-color="#FFB49B"
       id="stop9" />
  </linearGradient>
  <path
     d="m 33.245056,249.526 c 0,0 -12.504,-19.829 -21.504,-13.998 -8.9999997,5.832 -4.6669997,25.498 -4.6669997,25.498 0,0 -3.667,13.001 4.9999997,35.667 l 11.667,33.333 c 0,0 -0.991,14.995 9.504,15.164 l 11.496,-6.831 -11.496,-88.833 z"
     id="path11"
     inkscape:connector-curvature="0"
     style="fill:url(#SVGID_1_)" />
  <path
     d="m 29.775056,266.369 c 0,0 -12.035,-25.681 -19.035,-19.845 0,0 -0.667,18.835 2.667,24.835 l 4,-17.833 c 0,0 10.403,8.186 12.368,12.843 z"
     id="path13"
     inkscape:connector-curvature="0"
     style="fill:#8a6753" />
  <path
     d="m 30.080056,276.026 c 0,0 -13.672,17.666 -7.339,24.333 6.333,6.667 8.387,-7.055 12.193,2.64 l -4.854,-26.973 z"
     id="path15"
     inkscape:connector-curvature="0"
     style="fill:#8a6753" />
  <path
     d="m 298.47506,351.193 c -12.144,0 -16.472,-7.84 -17.062,-11.986 l -0.116,-0.808 11.771,-90.955 0.706,-1.119 c 2.643,-4.191 12.111,-17.87 22.979,-17.87 2.468,0 4.776,0.686 6.863,2.038 10.821,7.012 8.613,24.638 7.529,30.495 0.767,4.204 2.187,17.69 -5.521,37.848 -7.035,18.398 -10.296,28.801 -11.244,31.957 0.043,3.324 -0.429,10.837 -5.061,15.868 -2.668,2.896 -6.256,4.463 -10.375,4.528 l -0.469,0.004 z"
     id="path17"
     inkscape:connector-curvature="0"
     style="fill:#8a6753" />
  <linearGradient
     id="SVGID_2_"
     gradientUnits="userSpaceOnUse"
     x1="460.62701"
     y1="316.298"
     x2="460.62701"
     y2="427.03699"
     gradientTransform="translate(-153.92094,-81.843)">
    <stop
       offset=".483"
       stop-color="#FFCCAB"
       id="stop20" />
    <stop
       offset="1"
       stop-color="#FFB49B"
       id="stop22" />
  </linearGradient>
  <path
     d="m 298.84806,249.526 c 0,0 12.504,-19.829 21.504,-13.998 9,5.832 4.668,25.498 4.668,25.498 0,0 3.666,13.001 -5,35.667 -8.668,22.666 -11.668,33.333 -11.668,33.333 0,0 0.992,14.995 -9.504,15.164 l -11.496,-6.831 11.496,-88.833 z"
     id="path24"
     inkscape:connector-curvature="0"
     style="fill:url(#SVGID_2_)" />
  <path
     d="m 302.31706,266.369 c 0,0 12.034,-25.681 19.034,-19.845 0,0 0.668,18.835 -2.666,24.835 l -4,-17.833 c 0,0 -10.402,8.186 -12.368,12.843 z"
     id="path26"
     inkscape:connector-curvature="0"
     style="fill:#8a6753" />
  <path
     d="m 302.01306,276.026 c 0,0 13.673,17.666 7.339,24.333 -6.332,6.667 -8.387,-7.055 -12.193,2.64 l 4.854,-26.973 z"
     id="path28"
     inkscape:connector-curvature="0"
     style="fill:#8a6753" />
  <path
     d="m 176.79406,478.16 c -2.049,0 -4.013,-0.036 -5.9,-0.071 l -0.195,-0.004 c -1.604,-0.029 -3.152,-0.059 -4.65,-0.059 -1.497,0 -3.044,0.028 -4.648,0.059 l -0.196,0.004 c -1.888,0.035 -3.851,0.071 -5.901,0.071 -9.354,0 -20.877,-0.716 -35.421,-6.024 -10.731,-3.918 -13.065,-5.868 -17.496,-10.884 -3.081004,-3.487 -7.736004,-5.757 -21.845004,-16.442 -32.43,-24.562 -44.229,-77.764 -44.716,-80.017 l -0.057,-0.263 -6.568,-53.04 -2.747,-86.964 c -0.175,-2.877 -0.266,-5.756 -0.266,-8.5 0,-81.62 13.092,-131.379 41.2,-156.597 25.933,-23.267 61.259004,-23.267 98.660004,-23.267 37.401,0 72.727,0 98.66,23.267 28.108,25.218 41.2,74.978 41.2,156.597 0,2.763 -0.087,5.552 -0.267,8.526 -0.106,6.608 -1.123,65.929 -2.751,86.938 -1.033,13.318 -6.315,51.256 -6.54,52.864 l -0.03,0.22 -0.047,0.217 c -0.487,2.256 -12.301,55.467 -44.716,80.019 -14.115,10.691 -18.767,12.958 -21.845,16.442 -4.431,5.016 -6.766,6.967 -17.496,10.884 -14.544,5.309 -26.066,6.024 -35.419,6.024 h -0.003 z"
     id="path30"
     inkscape:connector-curvature="0"
     style="fill:#8a6753" />
  <path
     d="m 322.64706,166.362 c -0.257,-0.871 -0.686,-2.328 -0.602,-2.785 l 0.196,-0.888 -0.129,-0.9 c -0.491,-3.435 -1.075,-6.962 -1.737,-10.485 -2.413,-12.822 -5.933,-26.077 -10.759,-40.522 l -0.037,-0.108 c -1.156,-3.214 -2.358,-6.368 -3.573,-9.373 l -0.086,-0.199 c -2.161,-4.744 -4.655,-9.451 -7.625,-14.389 -1.327,-2.209 -2.778,-4.505 -4.312,-6.825 l -0.105,-0.152 c -11.923,-16.659 -26.506,-35.985 -44.259,-53.014 l -0.221,-0.211 -0.244,-0.184 c -2.434,-1.821 -4.97,-3.522 -7.537,-5.056 -7.94,-4.741 -16.521,-8.076 -25.508,-9.916 -2.103,-0.744 -3.919,-1.531 -5.54,-2.403 -0.308,-0.184 -0.617,-0.354 -0.926,-0.508 l -1.374,2.567 -0.201,-0.088 c -2.171,-0.959 -4.296,-2.011 -6.546,-3.125 -7.746,-3.834 -15.755,-7.798 -25.534,-7.798 -0.897,0 -1.806,0.035 -2.702,0.103 -3.173,0.119 -6.539,0.461 -10.008,1.018 -13.444,2.158 -26.624,7.107 -39.369,11.893 -5.865,2.203 -11.404,4.283 -16.632,5.951 l -0.483,0.154 -0.442,0.249 c -3.17,1.777 -6.325,3.625 -9.378004,5.492 -16.406,10.031 -30.899,21.186 -43.077,33.154 l -0.273,0.268 -0.229,0.307 c -1.247,1.671 -2.54,3.484 -4.068,5.705 -3.668,5.331 -7.342,11.037 -11.23,17.446 -1.83,3.015 -3.583,5.985 -5.215,8.83 -4.397,6.667 -8.007,13.897 -11.033,22.097 -0.951,2.577 -1.831,5.226 -2.616,7.875 l -0.048,0.176 c -5.314,20.664 -7.772,38.584 -7.736,56.352 -0.013,2.1 -0.022,4.242 -0.028,6.398 -0.012,4.305 -0.012,8.674 -0.012,12.894 -0.005,2.432 0.095,4.989 0.297,7.599 0.607,10.374 2.721,19.625 4.958,29.419 0.504,2.207 1.013,4.436 1.492,6.62 0.418,2.077 0.899,4.225 1.469,6.566 1.221,5.01 2.643,10.027 4.019,14.879 0.407,1.437 0.812,2.865 1.209,4.284 0.552,1.974 0.96,4.089 1.392,6.329 0.764,3.962 1.553,8.059 3.259,11.791 l 1.814,3.971 3.76,-1.137 V 116.026 h 5.573 l 5,-23.709 16.024,-9 V 74.499 H 265.40806 v 8.818 l 15.943,6 6,26.709 h 9.807 v 164.568 l 6.17,-1.475 c -0.097,-2.271 1.549,-6.461 2.871,-9.828 0.98,-2.496 1.906,-4.854 2.462,-7.043 1.372,-5.408 1.547,-10.312 1.716,-15.055 0.074,-2.087 0.151,-4.245 0.329,-6.447 0.279,-3.449 1.659,-6.961 3.119,-10.679 0.55,-1.401 1.119,-2.85 1.632,-4.312 1.795,-5.116 4.164,-12.927 5.257,-21.084 0.339,-2.539 0.728,-5.5 1.052,-8.597 1.111,-6.699 0.987,-12.74 0.299,-18.32 l 1.086,-3.258 c 1.004,-3.013 0.168,-5.853 -0.504,-8.134 z"
     id="path32"
     inkscape:connector-curvature="0"
     style="fill:#2e1e00" />
  <path
     d="m 299.90706,216.026 c 0,-173.864 -59.932,-173.864 -133.86,-173.864 -73.928004,0 -133.860004,0 -133.860004,173.864 0,2.772 0.094,5.521 0.261,8.252 l 2.74,86.748 c 1.625,13.125 6.501,52.5 6.501,52.5 0,0 11.447,53 42.474,76.5 31.027004,23.5 18.524004,19.445 37.775004,26.473 19.251,7.028 33.025,5.527 44.11,5.527 11.086,0 24.859,1.5 44.11,-5.527 19.251,-7.027 6.749,-2.973 37.775,-26.473 l 42.474,-76.5 c 0,0 5.478,-39.314 6.5,-52.5 1.677,-21.634 2.739,-86.748 2.739,-86.748 0.166,-2.73 0.261,-5.48 0.261,-8.252 z"
     id="path34"
     inkscape:connector-curvature="0"
     style="fill:#ffccab" />
  <path
     d="m 228.67506,351.693 c -7.373,-5.666 -37.375,-9.965 -37.375,-9.965 l -23.143,-5.091 0.075,-0.944 -2.185,0.48 -2.185,-0.48 0.075,0.944 -23.143,5.091 c 0,0 -30.002,4.299 -37.375,9.965 -7.373004,5.666 -7.291004,11.334 -7.999004,16 0,0 26.626004,3.667 47.959004,-5 l 22.667,2.333 22.667,-2.333 c 21.333,8.667 47.959,5 47.959,5 -0.706,-4.666 -0.624,-10.334 -7.997,-16 z"
     id="path36"
     inkscape:connector-curvature="0"
     style="opacity:0.5;fill:#e3b598" />
  <path
     d="m 297.15806,307.39 c 0,0 -30.365,85.635 -49.225,86.969 0,0 -16.189,37.667 -35.024,38.667 -18.835,1 -35.146,1.997 -46.861,2 -11.628,0.003 -27.677,-1 -46.512,-2 L 84.512056,394.359 c -18.859,-1.334 -49.225,-86.969 -49.225,-86.969 l -0.209,0.152 0.11,3.483 c 1.625,13.125 6.501,52.5 6.501,52.5 0,0 11.447,53 42.474,76.5 31.027004,23.5 18.524004,19.445 37.775004,26.473 19.251,7.028 33.025,5.527 44.11,5.527 11.086,0 24.859,1.5 44.11,-5.527 19.251,-7.027 6.749,-2.973 37.775,-26.473 l 42.474,-76.5 c 0,0 5.478,-39.314 6.5,-52.5 0.085,-1.1 0.169,-2.321 0.251,-3.635 z"
     id="path38"
     inkscape:connector-curvature="0"
     style="opacity:0.5;fill:#e3b598" />
  <circle
     cx="255.85699"
     cy="324.36899"
     r="11"
     id="circle40"
     sodipodi:cx="255.85699"
     sodipodi:cy="324.36899"
     sodipodi:rx="11"
     sodipodi:ry="11"
     style="fill:#5eaf9f;stroke:#2a3e97"
     transform="translate(-153.92094,-81.843)" />
  <circle
     cx="255.85699"
     cy="324.36899"
     r="4.5"
     id="circle42"
     sodipodi:cx="255.85699"
     sodipodi:cy="324.36899"
     sodipodi:rx="4.5"
     sodipodi:ry="4.5"
     style="fill:#1a1818"
     transform="translate(-153.92094,-81.843)" />
  <circle
     cx="257.85699"
     cy="320.36899"
     r="2.9979999"
     id="circle44"
     sodipodi:cx="257.85699"
     sodipodi:cy="320.36899"
     sodipodi:rx="2.9979999"
     sodipodi:ry="2.9979999"
     style="fill:#ffffff"
     transform="translate(-153.92094,-81.843)" />
  <circle
     cx="389.45499"
     cy="328.86899"
     r="11"
     id="circle46"
     sodipodi:cx="389.45499"
     sodipodi:cy="328.86899"
     sodipodi:rx="11"
     sodipodi:ry="11"
     style="fill:#5eaf9f;stroke:#2a3e97"
     transform="translate(-153.92094,-81.843)" />
  <circle
     cx="389.45499"
     cy="328.86899"
     r="4.5"
     id="circle48"
     sodipodi:cx="389.45499"
     sodipodi:cy="328.86899"
     sodipodi:rx="4.5"
     sodipodi:ry="4.5"
     style="fill:#1a1818"
     transform="translate(-153.92094,-81.843)" />
  <circle
     cx="391.45499"
     cy="324.86899"
     r="2.9979999"
     id="circle50"
     sodipodi:cx="391.45499"
     sodipodi:cy="324.86899"
     sodipodi:rx="2.9979999"
     sodipodi:ry="2.9979999"
     style="fill:#ffffff"
     transform="translate(-153.92094,-81.843)" />
  <path
     d="m 88.436056,240.028 c 0,0 17.842004,-5.001 26.796004,0.998 l -2.296,-15.75 H 92.686056 l -4.25,14.752 z"
     id="path52"
     inkscape:connector-curvature="0"
     style="fill:#ffccab" />
  <path
     d="m 247.93306,244.903 c 0,0 -17.842,-5.002 -26.796,0.998 l 2.296,-15.75 h 20.25 l 4.25,14.752 z"
     id="path54"
     inkscape:connector-curvature="0"
     style="fill:#ffccab" />
  <path
     d="m 125.93606,246.024 c 0,0 -18,-18.498 -49.750004,-2.998 l -6.75,6.5 c 0,0 28.25,-21.255 56.500004,-3.502 z"
     id="path56"
     inkscape:connector-curvature="0"
     style="fill:#5c3e00;stroke:#5c3e00;stroke-width:2" />
  <path
     stroke-miterlimit="10"
     d="m 129.43606,241.524 c 0,0 -23.75,-23.253 -58.750004,0"
     id="path58"
     inkscape:connector-curvature="0"
     style="opacity:0.5;fill:none;stroke:#a1806d;stroke-width:2;stroke-miterlimit:10" />
  <path
     d="m 140.43606,254.776 c 0,0 -10.5,16 -19.25,19.5 0,0 15.75,-2.75 19.25,-19.5 z"
     id="path60"
     inkscape:connector-curvature="0"
     style="opacity:0.5;fill:#a1806d" />
  <path
     d="m 142.43606,222.196 c 0,0 -47.750004,-16.9 -81.250004,1.901 l -8,5.704 -1.5,-11.196 25.25,-17.745 c 0,0 44.250004,7.816 56.750004,6.971 0,0 8.75,8.45 8.75,14.365 z"
     id="path62"
     inkscape:connector-curvature="0"
     style="fill:#5c3e00" />
  <path
     d="m 210.15806,251.024 c 0,0 18,-18.498 49.75,-2.998 l 6.75,6.5 c 0,0 -28.25,-21.255 -56.5,-3.502 z"
     id="path64"
     inkscape:connector-curvature="0"
     style="fill:#5c3e00;stroke:#5c3e00;stroke-width:2" />
  <path
     stroke-miterlimit="10"
     d="m 206.65806,246.524 c 0,0 23.75,-23.253 58.75,0"
     id="path66"
     inkscape:connector-curvature="0"
     style="opacity:0.5;fill:none;stroke:#a1806d;stroke-width:2;stroke-miterlimit:10" />
  <path
     d="m 193.65906,254.776 c 0,0 10.5,16 19.25,19.5 0,0 -15.75,-2.75 -19.25,-19.5 z"
     id="path68"
     inkscape:connector-curvature="0"
     style="opacity:0.5;fill:#a1806d" />
  <path
     d="m 193.65806,228.421 c 0,0 47.75,-16.9 81.25,1.901 l 8,5.704 1.5,-11.196 -25.25,-17.745 c 0,0 -44.25,7.816 -56.75,6.971 0,0 -8.75,8.45 -8.75,14.365 z"
     id="path70"
     inkscape:connector-curvature="0"
     style="fill:#5c3e00" />
  <path
     d="m 166.04806,351.19 c -14.893,0 -22.827,-3.472 -25.76,-5.128 -9.261,-2.335 -15.065,-6.986 -17.254,-13.828 -4.322,-13.51 8.417,-29.316 11.312,-32.673 16.031,-25.831 13.667,-56.173 13.42,-57.736 l -0.752,-2.508 12.137,0.207 h 13.248 l 12.677,-0.205 -0.746,2.502 c -0.244,1.578 -2.55,32.009 13.42,57.74 2.896,3.357 15.634,19.166 11.312,32.673 -2.19,6.843 -7.994,11.494 -17.254,13.828 -2.934,1.657 -10.868,5.128 -25.76,5.128 z"
     id="path72"
     inkscape:connector-curvature="0"
     style="fill:#8a6753" />
  <linearGradient
     id="SVGID_3_"
     gradientUnits="userSpaceOnUse"
     x1="319.96799"
     y1="319.20001"
     x2="319.96799"
     y2="427.034"
     gradientTransform="translate(-153.92094,-81.843)">
    <stop
       offset=".483"
       stop-color="#FFCCAB"
       id="stop75" />
    <stop
       offset="1"
       stop-color="#FFB49B"
       id="stop77" />
  </linearGradient>
  <path
     d="m 185.67406,237.357 c 0,0 -11.091,36.711 7.242,65.792 0,0 26.975,30.346 -3.424,37.3 0,0 -6.691,4.741 -23.444,4.741 l -23.444,-4.741 c -30.398,-6.954 -3.424,-37.3 -3.424,-37.3 18.333,-29.081 6.982,-65.792 6.982,-65.792 h 39.512 z"
     id="path79"
     inkscape:connector-curvature="0"
     style="fill:url(#SVGID_3_)" />
  <linearGradient
     id="SVGID_4_"
     gradientUnits="userSpaceOnUse"
     x1="319.96799"
     y1="370.202"
     x2="319.96799"
     y2="423.57101"
     gradientTransform="translate(-153.92094,-81.843)">
    <stop
       offset=".655"
       stop-color="#FFCCAB"
       id="stop82" />
    <stop
       offset=".868"
       stop-color="#FFE0CD"
       id="stop84" />
    <stop
       offset=".943"
       stop-color="#FFCCAB"
       id="stop86" />
  </linearGradient>
  <path
     d="m 180.35306,288.359 c 0,0 5.637,43.577 0,49.667 -4,4.322 -7.376,3.667 -14.305,3.667 -6.93,0 -10.308,0.655 -14.308,-3.667 -5.636,-6.09 0,-49.667 0,-49.667 h 28.613 z"
     id="path88"
     inkscape:connector-curvature="0"
     style="fill:url(#SVGID_4_)" />
  <g
     id="g90"
     style="opacity:0.5;fill:#a1806d"
     transform="translate(-153.92094,-81.843)">
    <path
       d="m 378.522,408.202 c 0,0 23.859,24.12 19.43,43.666 0,0 16.237,-17.051 -19.43,-43.666 z"
       id="path92"
       inkscape:connector-curvature="0" />
    <path
       d="m 261.415,408.202 c 0,0 -23.859,24.12 -19.43,43.666 0,0 -16.237,-17.051 19.43,-43.666 z"
       id="path94"
       inkscape:connector-curvature="0" />
  </g>
  <path
     d="m 190.51806,376.442 -24.471,4.562 -24.472,-4.562 -29.146,-4.052 19.521,17.303 c 12.908,9.592 25.44,8.021 34.097,8.021 8.655,0 21.188,1.571 34.096,-8.021 l 19.521,-17.303 -29.146,4.052 z"
     id="path96"
     inkscape:connector-curvature="0"
     style="fill:#dc9493" />
  <path
     d="m 278.90706,141.026 c 0,0 -1.5,35.445 3.5,47.473 0,0 -11.214,-12.914 -3.5,-47.473 z"
     id="path98"
     inkscape:connector-curvature="0"
     style="opacity:0.5;fill:#a1806d" />
  <path
     d="m 56.727056,141.026 c 0,0 1.5,35.445 -3.5,47.473 0,0 11.214,-12.914 3.5,-47.473 z"
     id="path100"
     inkscape:connector-curvature="0"
     style="opacity:0.5;fill:#a1806d" />
  <path
     d="m 35.224056,281.996 c -6.817,-25.081 6.183,-49.081 4.844,-74.406 0.078,-3.316 0.104,-6.652 0.12,-9.998 0.051,-10.036 0.026,-20.151 1.11,-30.035 -0.097,-3.484 -0.234,-6.982 -0.415,-10.499 -0.348,-2.915 -0.629,-5.917 -0.791,-8.962 -3.686,-25.182 4.314,-58.182 29.314,-67.182 5.716,-2.45 11.767,-3.066 17.877,-2.531 1.527,0.134 3.059,0.34 4.592,0.625 7.765,3.453 15.647004,6.929 23.855004,8.942 1.646,0.41 3.305,0.761 4.998,1.089 3.136,0.575 6.364,0.995 9.653,1.271 1.644,0.138 3.309,0.246 4.996,0.335 6.812,0.507 13.458,0.332 20.018,-0.238 1.64,-0.143 3.274,-0.31 4.904,-0.496 2.416,-0.3 4.83,-0.577 7.242,-0.844 1.207,-0.133 2.415,-0.259 3.639,-0.345 6.891,0.076 13.905,0.602 20.854,0.647 1.738,0.012 3.472,-0.007 5.199,-0.07 14.538,1.291 26.406,-7.411 39.853,-10.539 1.682,-0.391 3.387,-0.695 5.126,-0.882 1.919,-0.396 3.817,-0.625 5.689,-0.712 19.505,-2.253 33.505,13.747 37.352,31.704 0.336,1.003 0.651,2.01 0.946,3.022 1.478,5.045 2.445,10.224 3.064,15.325 0.224,1.158 0.412,2.324 0.564,3.496 0.456,3.517 0.585,7.093 0.353,10.686 -0.036,3.719 -0.409,7.431 -1.146,11.088 -0.015,3.185 0,6.353 0.042,9.513 0.294,22.117 1.91,43.809 3.804,66.332 0.033,2.793 -0.028,5.606 -0.071,8.414 -0.086,5.617 -0.1,11.217 0.856,16.613 0.774,4.369 2.544,8.58 3.082,13 0.528,4.349 -0.117,9.227 1.585,12.974 -0.223,-5.208 4.157,-13.098 5.481,-18.315 1.814,-7.148 1.314,-13.349 1.908,-20.676 0.459,-5.663 3.167,-10.972 5.017,-16.242 2.208,-6.294 4.128,-13.443 5.019,-20.091 0.364,-2.724 0.741,-5.624 1.051,-8.606 1.599,-9.488 0.599,-17.488 -1.401,-26.488 1,2 2,3 3,4 1,-3 -2,-7 -1.243,-10.419 -0.493,-3.447 -1.063,-6.869 -1.702,-10.268 -0.854,-4.532 -1.83,-9.024 -2.914,-13.481 -0.543,-2.229 -1.112,-4.449 -1.706,-6.661 -0.443,-3.017 -1.043,-5.962 -1.779,-8.85 -2.682,-8.422 -6.085,-16.434 -10.053,-24.126 -0.793,-1.538 -1.609,-3.063 -2.447,-4.577 -7.155,-13.617 -17.155,-25.617 -26.877,-38.456 -0.84,-1.016 -1.686,-2.029 -2.536,-3.039 -2.552,-3.03 -5.148,-6.034 -7.778,-9.022 -2.126,-2.364 -4.286,-4.69 -6.486,-6.973 -2.201,-2.283 -4.441,-4.522 -6.727,-6.714 -2.289,-1.713 -4.657,-3.304 -7.104,-4.766 -7.345,-4.385 -15.413,-7.603 -24.273,-9.376 -2.561,-0.889 -5.04,-1.938 -7.373,-3.271 2,1 3.988,3.012 4.983,5.017 -2.153,-0.681 -4.261,-1.517 -6.344,-2.437 -10.413,-4.603 -20.112,-11.383 -32.476,-10.401 -3.141,0.113 -6.314,0.451 -9.501,0.962 -19.121,3.069 -38.707,12.383 -55.273,17.67 -3.096,1.736 -6.171,3.536 -9.215004,5.397 -5.708,3.49 -11.309,7.198 -16.739,11.119 -1.81,1.307 -3.601,2.637 -5.371,3.99 -29.065,20.683 -46.065,52.683 -55.565,86.487 -0.73,3.062 -1.367,6.147 -1.908,9.253 -0.563,3.019 -1.069,6.049 -1.51,9.096 -1.322,9.142 -2.062,18.438 -2.042,28.029 -0.013,2.094 -0.022,4.229 -0.028,6.38 -0.012,4.301 -0.012,8.665 -0.012,12.892 -0.005,2.426 0.098,4.842 0.286,7.247 0.179,3.075 0.5,6.068 0.923,9.018 0.423,2.95 0.948,5.856 1.533,8.755 5.258,19.526 9.258,40.526 16.445,60.303 l -0.371,0.303 z"
     id="path102"
     inkscape:connector-curvature="0"
     style="fill:#5c3e00" />
  <path
     d="m 90.936056,136.878 c 0,0 117.806004,-13.992 147.472004,-5.899 0,-0.001 -63.276,-15.628 -147.472004,5.899 z"
     id="path104"
     inkscape:connector-curvature="0"
     style="opacity:0.5;fill:#a1806d" />
  <path
     d="m 166.04806,376.442 -8.333,-3.083 c 0,0 -25.502,2.333 -32.751,0 l -16.916,-4 c 0,0 10.83,10.832 33.415,7.083 0,0 7.585,4.584 24.585,4.584 l 24.585,-4.584 c 22.585,3.749 33.415,-7.083 33.415,-7.083 0,0 -9.667,1.667 -16.916,4 h -32.751 l -8.333,3.083 z"
     id="path106"
     inkscape:connector-curvature="0"
     style="fill:#b55250" />
  <path
     d="m 294.04306,128.363 c 2.817,6.303 1.842,18.896 2.221,26.378 0.312,6.177 -0.287,12.754 1.066,18.789 0.269,-2.957 0.413,-7.401 1.312,-9.573 0.204,2.479 0.362,5.006 0.925,7.431 0.095,-1.277 0.284,-2.546 0.362,-3.825 0.335,2.022 0.439,4.07 0.996,6.035 0.286,-1.679 0.403,-3.479 0.683,-5.172 0.608,2.258 0.891,4.626 1.567,6.876 0,0.047 0.304,-2.027 0.337,-2.701 2.166,6.964 4.603,15.3 3.543,22.756 5.092,-12.701 3.354,-30.436 0.926,-43.47 -2.357,-12.656 -4.73,-27.944 -10.594,-39.507 0.608,5.056 2.165,10.049 2.773,15.196 0.46,3.902 0.648,8.172 1.795,11.936 -0.691,-2.186 -1.647,-4.677 -2.644,-6.579 0.521,6.384 2.241,12.667 2.926,19.04 -0.99,-2.237 -1.936,-4.737 -2.241,-7.185 0.022,4.46 1.678,8.985 1.636,13.466 -0.68,-2.646 -1.227,-5.945 -2.436,-8.223 -0.358,2.569 0.058,7.41 0.643,9.112 l -5.796,-30.78 z"
     id="path108"
     inkscape:connector-curvature="0"
     style="fill:#a28b63" />
  <path
     d="m 24.407056,132.36 c 0,10.417 -0.894,20.711 -1,31.083 -0.076,7.367 -0.236,17.694 2.351,24.636 -0.103,-1.881 -0.423,-5.759 -0.283,-8.388 1.374,2.192 1.498,5.603 2.307,8.231 -0.581,-1.727 -0.855,-3.604 -0.732,-5.425 0.973,3.107 1.461,6.604 3.048,9.457 -0.074,-0.931 0.117,-1.918 0.036,-2.825 1.02,2.54 1.725,5.607 2.865,7.9 1.059,-14.119 -2.25,-28.437 -1.608,-42.62 0.51,-11.268 -0.052,-22.731 1.017,-33.955 -0.227,9.737 -3.735,19.121 -3.65,28.832 -0.695,-2.637 -1.04,-5.497 -1.015,-8.225 -0.004,4.502 0.19,9.099 -0.069,13.564 -0.69,-1.817 -1.001,-3.827 -1.282,-5.768 0.057,5.033 0.659,11.955 0.35,16.167 l -2.335,-32.664 z"
     id="path110"
     inkscape:connector-curvature="0"
     style="fill:#a28b63" />
  <path
     d="m 131.23506,48.994 c -2.625,-5.027 -4.537,-11.497 -4.066,-17.246 -0.073,4.365 1.712,9.731 4.347,13.165 -0.206,-2.933 -0.854,-5.867 -0.688,-8.822 0.753,4.778 2.771,8.908 5.354,12.826 -1.235,-8.874 -4.729,-17.281 -3.365,-26.421 2.46,16.343 9.692,27.276 18.623,40.435 -0.163,-3.644 -2.592,-7.054 -3.617,-10.49 0.722,2.277 1.868,5.109 3.702,6.783 -0.005,-1.986 -0.463,-4.035 -1.379,-5.775 1.099,3.415 3.586,6.827 6.645,8.792 -1.006,-6.479 -5.138,-13.814 -7.305,-20.173 -1.766,-5.181 -2.983,-11.028 -5.268,-15.71 2.619,8.526 9.374,17.872 14.974,24.892 -0.227,-0.946 -0.312,-1.95 -0.639,-2.817 0.907,2.463 2.618,5.665 4.565,7.5 -0.091,-1.04 0.027,-1.82 -0.316,-2.844 1.709,4.426 4.431,8.491 5.967,12.922 1.044,3.011 1.021,6.451 2.606,9.324 -0.982,-1.68 -2.057,-3.345 -3.162,-4.937 0.088,1.939 1.201,3.715 1.992,5.466 -2.078,-7.434 -10.24,-5.628 -4.642,-0.266 -1.152,-1.686 -2.425,-3.726 -4.369,-4.241 0.545,2.543 1.521,5.09 3.036,7.208 -2.105,-1.801 -4.46,-4.448 -7.358,-4.519 0.226,1.802 1.512,3.393 2.509,4.921 -15.62,-3.375 -21.299,-16.861 -28.146,-29.973 z"
     id="path112"
     inkscape:connector-curvature="0"
     style="fill:#a28b63" />
  <path
     d="m 118.66906,67.32 c -4.876,2.421 -13.034,-11.218 -14.908,-15.159 -2.046,-4.303 -2.617,-8.572 -2.093,-13.231 -3.385004,4.234 -2.237004,12.099 0.075,16.473 -3.138004,-5.108 -3.948004,-9.6 -3.966004,-15.562 -0.652,5.408 0.041,10.333 1.225,15.584 -1.083,-3.661 -4.297,-6.345 -5.166,-10.206 -0.677,-3.009 -0.03,-6.058 -0.04,-9.058 -4.496,3.094 -1.386,12.44 -0.858,16.836 -0.768,-1.956 -1.582,-4.37 -2.071,-6.236 0.35,2.652 0.864,5.4 0.809,8.059 -1.558,-1.496 -1.911,-4.222 -2.139,-6.287 -0.612,2.393 0.52,5.56 0.986,8.131 -0.084,-0.959 -2.138,-10.161 -3.102,-10.491 -3.389,-1.16 -1.572,11.538 -1.232,13.275 1.364,6.983 4.33,15.917 11.268,19.275 -1.055,-1.464 -2.404,-2.957 -3.257,-4.55 1.26,1.524 3.585,3.909 5.974004,4.565 -0.315004,-1.214 -1.008004,-2.448 -1.816004,-3.46 0.84,1.605 2.364004,3.668 4.218004,3.741 0.225,-1.166 -0.022,-2.75 -0.383,-3.492 2.251,2.254 5.143,3.339 8.255,2.948 0.291,-2.699 -3.044,-5.97 -3.806,-7.573 1.899,1.596 4.244,3.542 6.832,3.35 0.01,-1.302 -0.013,-2.148 -1.103,-2.888 1.918,1.233 10.385,3.077 9.902,-0.924 1.117,1.376 3.563,3.676 4.266,1.119 l -7.87,-4.239 z"
     id="path114"
     inkscape:connector-curvature="0"
     style="fill:#a28b63" />
  <path
     d="m 205.02106,72.693 c 7.471,-2.658 12.103,-17.647 14.333,-24.326 2.488,-7.453 4.082,-15.42 2.661,-23.253 1.803,5.731 1.703,11.502 1.666,17.476 1.752,-3.951 3.328,-7.528 3.322,-12.092 0.242,1.502 0.422,3.284 0.926,4.531 1.094,-3.581 2.411,-7.864 2.75,-11.579 0.664,4.171 0.973,8.401 2.083,12.505 0.921,-2.307 1.066,-5.008 0.918,-7.523 3.19,15.935 2.858,38.987 -11.94,49.583 0.691,-3.06 1.304,-6.268 2.311,-9.231 -1.683,3.348 -4.28,6.687 -7.666,8.173 0.799,-3.571 3.105,-5.642 4.876,-8.657 -2.79,1.868 -5.234,4.867 -7.867,6.664 -0.189,-2.803 2.327,-5.659 4.2,-7.581 -3.096,1.698 -5.143,4.986 -7.861,7.223 -0.256,-2.55 1.103,-5.162 3.187,-6.624 -3.052,2.358 -5.124,5.823 -8.897,7.045 l 0.998,-2.334 z"
     id="path116"
     inkscape:connector-curvature="0"
     style="fill:#a28b63" />
</svg>
