<?xml version="1.0" encoding="utf-8"?>
<!-- Generator: Adobe Illustrator 15.0.0, SVG Export Plug-In . SVG Version: 6.00 Build 0)  -->
<!DOCTYPE svg PUBLIC "-//W3C//DTD SVG 1.1//EN" "http://www.w3.org/Graphics/SVG/1.1/DTD/svg11.dtd">
<svg version="1.1" xmlns="http://www.w3.org/2000/svg" xmlns:xlink="http://www.w3.org/1999/xlink" x="0px" y="0px" width="370px"
	 height="516px" viewBox="0 0 370 516" enable-background="new 0 0 370 516" xml:space="preserve">
<g id="Layer_1">
	<path fill="#8A6754" d="M185.322,486.102c-8.965,0-31.41-0.582-46.167-5.969c-11.668-4.26-12.871-4.916-18.383-10.024
		c-3.167-2.934-8.463-7.838-20.958-17.302c-32.409-24.546-44.229-77.762-44.717-80.016l-0.033-0.156
		c-0.017-0.08-0.03-0.16-0.04-0.241l-6.533-52.77c-0.012-0.091-0.019-0.184-0.021-0.275l-1.772-57.561
		c-0.051-1.656,1.25-3.04,2.906-3.092c1.625-0.071,3.04,1.251,3.091,2.906l1.768,57.423l6.504,52.522
		c0.463,2.14,11.813,53.257,42.47,76.476c12.731,9.643,18.163,14.674,21.408,17.68c4.734,4.388,5.018,4.649,16.368,8.793
		c14.247,5.201,37.364,5.605,44.11,5.605c6.745,0,29.86-0.404,44.11-5.605c11.346-4.142,11.629-4.403,16.361-8.788
		c3.243-3.004,8.672-8.034,21.414-17.685c30.655-23.219,42.005-74.336,42.473-76.5l0.001-0.007
		c0.566-4.074,5.524-39.909,6.499-52.492c0.633-8.162,1.222-23.885,1.909-50.979c0.041-1.63,1.376-2.924,2.998-2.924
		c0.025,0,0.051,0,0.077,0.001c1.656,0.042,2.965,1.419,2.923,3.075c-0.69,27.203-1.284,43.021-1.925,51.291
		c-0.988,12.759-5.97,48.762-6.534,52.825l-0.021,0.155c-0.01,0.069-0.022,0.139-0.037,0.208l-0.023,0.109
		c-0.488,2.259-12.31,55.475-44.716,80.021c-12.506,9.471-17.798,14.374-20.959,17.303c-5.517,5.11-6.719,5.766-18.383,10.023
		C216.729,485.52,194.286,486.102,185.322,486.102z"/>
	<path fill="#8A6754" d="M321.089,268.121c-0.626,24.675-1.229,42.269-1.917,51.135c-1.017,13.125-6.296,51.072-6.52,52.682
		l-0.016,0.11l-0.023,0.109c-0.478,2.208-12.045,54.361-43.594,78.258c-12.621,9.559-17.983,14.526-21.187,17.494
		c-5.073,4.699-5.734,5.157-17.372,9.405c-14.105,5.148-36.047,5.787-45.139,5.787s-31.033-0.638-45.139-5.787
		c-11.639-4.249-12.301-4.706-17.373-9.406c-3.204-2.968-8.566-7.936-21.186-17.493c-31.551-23.896-43.118-76.05-43.596-78.258
		l-0.027-0.132l-6.533-52.77l-1.772-57.561"/>
	<polygon points="326.575,237.022 314.329,249.021 314.949,254.523 330.275,245.521 	"/>
	<polygon points="42.356,237.022 54.603,249.021 53.982,254.523 38.656,245.521 	"/>
	<g>
		<path fill="#8A6754" d="M50.586,369.188c-4.133-0.065-7.721-1.632-10.389-4.527c-4.633-5.032-5.104-12.545-5.062-15.869
			c-0.945-3.152-4.201-13.544-11.242-31.957c-7.705-20.153-6.287-33.643-5.521-37.848c-1.082-5.855-3.289-23.485,7.531-30.495
			c2.086-1.352,4.395-2.037,6.861-2.037c10.865,0,20.336,13.678,22.98,17.869l0.705,1.119l11.77,90.954l-0.115,0.808
			c-0.592,4.147-4.92,11.987-17.062,11.987L50.586,369.188z"/>
		<linearGradient id="SVGID_1_" gradientUnits="userSpaceOnUse" x1="42.8096" y1="252.4536" x2="42.8096" y2="363.1919">
			<stop  offset="0.4828" style="stop-color:#FFCDAE"/>
			<stop  offset="1" style="stop-color:#FFB59E"/>
		</linearGradient>
		<path fill="url(#SVGID_1_)" d="M50.668,267.524c0,0-12.504-19.828-21.504-13.998c-9,5.832-4.666,25.498-4.666,25.498
			s-3.668,13.001,5,35.667c8.666,22.666,11.666,33.333,11.666,33.333s-0.99,14.995,9.504,15.164
			c10.496,0.169,11.496-6.831,11.496-6.831L50.668,267.524z"/>
		<path fill="#8A6754" d="M47.199,284.367c0,0-12.035-25.681-19.035-19.845c0,0-0.666,18.835,2.666,24.835l4-17.833
			C34.83,271.524,45.234,279.71,47.199,284.367z"/>
		<path fill="#8A6754" d="M47.504,294.024c0,0-13.672,17.666-7.34,24.333c6.334,6.667,8.387-7.055,12.193,2.64L47.504,294.024z"/>
	</g>
	<g>
		<path fill="#8A6754" d="M317.889,369.191c-12.143,0-16.471-7.84-17.062-11.986l-0.115-0.808l11.77-90.955l0.707-1.119
			c2.643-4.191,12.111-17.869,22.979-17.869c2.467,0,4.775,0.686,6.863,2.037c10.82,7.012,8.613,24.639,7.529,30.495
			c0.766,4.204,2.186,17.69-5.521,37.848c-7.035,18.398-10.295,28.801-11.244,31.957c0.043,3.324-0.428,10.837-5.061,15.868
			c-2.668,2.896-6.256,4.463-10.375,4.528L317.889,369.191z"/>
		<linearGradient id="SVGID_2_" gradientUnits="userSpaceOnUse" x1="326.1211" y1="252.4536" x2="326.1211" y2="363.1919">
			<stop  offset="0.4828" style="stop-color:#FFCDAE"/>
			<stop  offset="1" style="stop-color:#FFB59E"/>
		</linearGradient>
		<path fill="url(#SVGID_2_)" d="M318.262,267.524c0,0,12.504-19.828,21.504-13.998c9,5.832,4.668,25.498,4.668,25.498
			s3.666,13.001-5,35.667c-8.668,22.666-11.668,33.333-11.668,33.333s0.992,14.995-9.504,15.164s-11.496-6.831-11.496-6.831
			L318.262,267.524z"/>
		<path fill="#8A6754" d="M321.73,284.367c0,0,12.035-25.681,19.035-19.845c0,0,0.668,18.835-2.666,24.835l-4-17.833
			C334.1,271.524,323.697,279.71,321.73,284.367z"/>
		<path fill="#8A6754" d="M321.426,294.024c0,0,13.674,17.666,7.34,24.333c-6.332,6.667-8.387-7.055-12.193,2.64L321.426,294.024z"
			/>
	</g>
	<path fill="#8A6754" d="M185.322,483.102c-9.092,0-31.033-0.638-45.139-5.787c-11.639-4.249-12.301-4.706-17.373-9.406
		c-3.204-2.968-8.566-7.936-21.186-17.493c-31.551-23.896-43.118-76.05-43.596-78.258l-0.027-0.132l-6.533-52.77l-1.772-57.561
		c2.332-10.533,1.777-27.889,1.821-34.272l-3.102,2.13l0.104-2.049c-0.031-1.158-0.057-2.316-0.057-3.48
		c0-80.706,12.774-129.756,40.202-154.364c25.079-22.5,59.847-22.5,96.657-22.5c36.809,0,71.576,0,96.655,22.5
		c27.429,24.608,40.203,73.659,40.203,154.364c0,1.419-0.026,2.896-0.082,4.516l0.977,4.247l-3.975-4.349
		c-0.336-0.235-2.237-0.99-2.525-1.151c0.055,7.76,0.606,30.756,4.514,40.835c-0.626,24.675-1.229,42.269-1.917,51.135
		c-1.017,13.125-6.296,51.072-6.52,52.682l-0.016,0.11l-0.023,0.109c-0.478,2.208-12.045,54.361-43.594,78.258
		c-12.621,9.559-17.983,14.526-21.187,17.494c-5.073,4.699-5.734,5.157-17.372,9.405
		C216.355,482.463,194.414,483.102,185.322,483.102z"/>
	<path fill="#FFCDAE" d="M319.101,228.438c0.05-1.466,0.08-2.937,0.08-4.414c0-173.864-59.932-173.864-133.858-173.864
		c-73.93,0-133.859,0-133.859,173.864c0,1.138,0.025,2.27,0.055,3.399c1.867-0.938,3.43-1.108,3.965-0.496
		c0,0,0.369,20.837-2.816,35.233c0.635,20.087,1.421,44.982,1.797,56.863c1.625,13.125,6.5,52.5,6.5,52.5s11.447,53,42.475,76.5
		c31.025,23.5,18.523,19.445,37.775,26.473c19.25,7.027,33.025,5.527,44.109,5.527c11.085,0,24.858,1.5,44.11-5.527
		c19.25-7.027,6.748-2.973,37.775-26.473c31.025-23.5,42.473-76.5,42.473-76.5s5.479-39.314,6.5-52.5
		c0.823-10.609,1.497-31.675,1.972-50.391c-5.205-13.428-4.703-41.706-4.703-41.706C314.14,226.137,316.538,226.645,319.101,228.438
		z"/>
	<circle fill="#62B0A0" stroke="#2E4096" cx="110.349" cy="246.523" r="11"/>
	<circle fill="#1A1818" cx="110.349" cy="246.523" r="4.5"/>
	<circle fill="#FFFFFF" cx="112.35" cy="242.523" r="2.997"/>
	<circle fill="#62B0A0" stroke="#2E4096" cx="257.947" cy="250.023" r="11"/>
	<circle fill="#1A1818" cx="257.947" cy="250.023" r="4.5"/>
	<circle fill="#FFFFFF" cx="259.947" cy="246.023" r="2.998"/>
	<path fill="#FFCDAE" d="M97.849,240.025c0,0,17.842-5.001,26.797,0.998l-2.297-15.75h-20.25L97.849,240.025z"/>
	<path fill="#FFCDAE" d="M270.348,243.9c0,0-17.842-5.002-26.797,0.998l2.297-15.75h20.25L270.348,243.9z"/>
	<path fill="#5B3E02" stroke="#5B3E02" stroke-width="2" d="M135.349,246.021c0,0-18-18.498-49.75-2.998l-6.75,6.5
		C78.849,249.523,107.099,228.269,135.349,246.021z"/>
	<path opacity="0.5" fill="none" stroke="#A1816E" stroke-width="2" stroke-miterlimit="10" d="M137.849,244.521
		c0,0-23.75-23.253-58.75,0"/>
	<path fill="#5B3E02" d="M155.724,221.947c0,0-47.75-16.9-81.25,1.901l-8,5.704l-1.5-11.196l25.25-17.745
		c0,0,44.25,7.816,56.75,6.971C146.974,207.582,155.724,216.032,155.724,221.947z"/>
	<path fill="#5B3E02" stroke="#5B3E02" stroke-width="2" d="M232.572,250.021c0,0,18-18.498,49.75-2.998l6.75,6.5
		C289.072,253.523,260.822,232.269,232.572,250.021z"/>
	<path opacity="0.5" fill="none" stroke="#A1816E" stroke-width="2" stroke-miterlimit="10" d="M229.072,248.521
		c0,0,23.75-23.253,58.75,0"/>
	<path fill="#5B3E02" d="M216.072,227.193c0,0,47.75-16.899,81.25,1.902l8,5.703l1.5-11.196l-25.25-17.745
		c0,0-44.25,7.816-56.75,6.972C224.822,212.829,216.072,221.279,216.072,227.193z"/>
	<path fill="#A1816E" d="M239.705,342.356c0,0,23.859,24.12,19.43,43.666C259.135,386.022,275.371,368.972,239.705,342.356z"/>
	<path fill="#A1816E" d="M133.908,342.356c0,0-23.859,24.12-19.43,43.666C114.479,386.022,98.24,368.972,133.908,342.356z"/>
	<path opacity="0.5" fill="#A1816E" d="M297.32,149.023c0,0-1.5,35.445,3.5,47.473C300.82,196.496,289.607,183.582,297.32,149.023z"
		/>
	<path opacity="0.5" fill="#A1816E" d="M75.141,149.023c0,0,1.5,35.445-3.5,47.473C71.641,196.496,82.855,183.582,75.141,149.023z"
		/>
	<path opacity="0.5" fill="#A1816E" d="M110.717,133.715c0,0,118.534-4.894,147.49,5.456
		C258.207,139.171,196.318,118.725,110.717,133.715z"/>
	<path fill="#DB9595" d="M243.016,393.379c0,0-13.249,12.428-58.555,12.428c-45.307,0-58.555-12.428-58.555-12.428H243.016z"/>
	<path fill="#B45252" d="M184.462,393.379c-29.64-4.333-58.556,0-58.556,0c13.14,4.667,19.527,1.333,30.943,1.394
		s20.611,4.676,27.612,4.676c7.143,0,16.107-4.615,27.61-4.676c11.416-0.061,17.804,3.273,30.943-1.394
		C243.016,393.379,214.102,389.046,184.462,393.379z"/>
	<path d="M326.158,230.369c0,0-6-5.666-20.666-8.666s-61.287-0.741-81,4c-6.163,1.482-23.667,9.096-23.667,9.096
		c-7.333,4.762-16.359,3.57-16.359,3.57s-9.026,1.191-16.359-3.57c0,0-17.504-7.613-23.667-9.096c-19.713-4.741-66.334-7-81-4
		s-20.666,8.666-20.666,8.666s-5.667,1.725-8.667,1.363v13.637c0,0,7.333,0.283,8,4.809s3,17.98,3,17.98s0.001,6.823,6.667,11.351
		s30.652,10.463,41.333,11.105c12.006,0.722,48-3.244,48-3.244s7.001-2,10.667-6s15.666-31.618,18.666-34.476
		c3-2.858,11.052-3.858,14.026-3.858s11.026,1,14.026,3.858c3,2.857,15,30.476,18.666,34.476s10.667,6,10.667,6
		s35.994,3.966,48,3.244c10.68-0.643,34.667-6.578,41.333-11.105s6.667-11.351,6.667-11.351s2.333-13.455,3-17.98s8-4.809,8-4.809
		v-13.637C331.825,232.094,326.158,230.369,326.158,230.369z M164.856,249.536c-0.31,2.241-2.824,7.526-5.149,12.009
		c-3.574,6.889-7.73,16.643-9.408,18.474c-2.94,3.209-8.545,5.058-9.578,5.379c-2.441,0.226-30.791,3.18-41.099,3.436
		c-1.587,0.039-4.768-0.036-6.345-0.211c-10.384-1.151-34.045-6.465-40.38-10.768c-5.652-3.839-5.788-9.471-5.791-9.696
		c0,0-2.365-13.823-3.021-18.271c-0.593-4.025-0.499-20.652,13.312-23.478c1.846-0.378,13.885-2.373,17.584-2.373
		c22.196,0,52.144,0.549,69,4.375c4.901,1.112,13.49,4.974,18.75,7.25C165.907,237.661,165.356,245.911,164.856,249.536z
		 M324.847,249.887c-0.656,4.448-3.021,18.271-3.021,18.271c-0.003,0.226-0.139,5.857-5.791,9.696
		c-6.335,4.303-29.995,9.616-40.38,10.768c-1.577,0.175-4.759,0.25-6.345,0.211c-10.308-0.256-38.657-3.21-41.099-3.436
		c-1.033-0.321-6.638-2.17-9.578-5.379c-1.678-1.831-5.834-11.585-9.408-18.474c-2.325-4.482-4.84-9.768-5.149-12.009
		c-0.5-3.625-1.051-11.875,2.125-13.875c5.26-2.276,13.849-6.138,18.75-7.25c16.856-3.825,46.804-4.375,69-4.375
		c3.699,0,15.738,1.995,17.584,2.373C325.346,229.234,325.439,245.861,324.847,249.887z"/>
	<g>
		<path fill="#FFFFFF" d="M74.981,225.036c33.385,0,55.883,1.423,68.779,4.35c4.292,0.974,11.521,4.123,16.8,6.421l1.695,0.737
			c2.125,1.444,2.328,7.653,1.61,12.854c-0.234,1.695-2.073,5.954-5.046,11.685c-1.354,2.611-2.771,5.585-4.14,8.462
			c-2.052,4.31-4.174,8.767-5.118,9.797c-2.676,2.921-7.796,4.675-9.04,5.069c-0.376,0.035-1.125,0.11-2.169,0.215
			c-7.387,0.738-29.866,2.985-38.755,3.206c-0.267,0.007-0.581,0.01-0.925,0.01c-1.663,0-4.012-0.073-5.285-0.215
			c-9.95-1.103-33.653-6.338-39.928-10.601c-5.224-3.548-5.35-8.666-5.353-8.882l-0.001-0.079l-0.013-0.077
			c-0.024-0.138-2.371-13.862-3.018-18.248c-0.028-0.192-2.169-19.347,12.524-22.353C59.576,226.984,71.456,225.036,74.981,225.036
			 M74.981,224.036c-3.699,0-15.738,1.995-17.584,2.373c-13.812,2.825-13.905,19.452-13.312,23.478
			c0.656,4.448,3.021,18.271,3.021,18.271c0.003,0.226,0.139,5.857,5.791,9.696c6.335,4.303,29.996,9.616,40.38,10.768
			c1.305,0.145,3.706,0.221,5.396,0.221c0.353,0,0.675-0.003,0.949-0.01c10.308-0.256,38.657-3.21,41.099-3.436
			c1.033-0.321,6.638-2.17,9.578-5.379c1.678-1.831,5.834-11.585,9.408-18.474c2.325-4.482,4.84-9.768,5.149-12.009
			c0.5-3.625,1.051-11.875-2.125-13.875c-5.26-2.276-13.849-6.138-18.75-7.25C127.125,224.585,97.178,224.036,74.981,224.036
			L74.981,224.036z"/>
	</g>
	<path opacity="0.25" fill="#FFFFFF" d="M164.856,249.536c-0.31,2.241-2.824,7.526-5.149,12.009
		c-3.574,6.889-7.73,16.643-9.408,18.474c-2.94,3.209-8.545,5.058-9.578,5.379c-2.441,0.226-30.791,3.18-41.099,3.436
		c-1.587,0.039-4.768-0.036-6.345-0.211c-10.384-1.151-34.045-6.465-40.38-10.768c-5.652-3.839-5.788-9.471-5.791-9.696
		c0,0-2.365-13.823-3.021-18.271c-0.593-4.025-0.499-20.652,13.312-23.478c1.846-0.378,13.885-2.373,17.584-2.373
		c22.196,0,52.144,0.549,69,4.375c4.901,1.112,13.49,4.974,18.75,7.25C165.907,237.661,165.356,245.911,164.856,249.536z"/>
	<path opacity="0.25" fill="#FFFFFF" d="M324.847,249.887c-0.656,4.448-3.021,18.271-3.021,18.271
		c-0.003,0.226-0.139,5.857-5.791,9.696c-6.335,4.303-29.995,9.616-40.38,10.768c-1.577,0.175-4.759,0.25-6.345,0.211
		c-10.308-0.256-38.657-3.21-41.099-3.436c-1.033-0.321-6.638-2.17-9.578-5.379c-1.678-1.831-5.834-11.585-9.408-18.474
		c-2.325-4.482-4.84-9.768-5.149-12.009c-0.5-3.625-1.051-11.875,2.125-13.875c5.26-2.276,13.849-6.138,18.75-7.25
		c16.856-3.825,46.804-4.375,69-4.375c3.699,0,15.738,1.995,17.584,2.373C325.346,229.234,325.439,245.861,324.847,249.887z"/>
	<g>
		<path fill="#FFFFFF" d="M293.95,225.036c3.525,0,15.405,1.948,17.384,2.353c14.692,3.006,12.552,22.16,12.523,22.352
			c-0.647,4.386-2.994,18.111-3.018,18.249l-0.014,0.077l-0.001,0.079c-0.003,0.216-0.129,5.334-5.353,8.882
			c-6.276,4.263-29.979,9.498-39.929,10.601c-1.272,0.142-3.622,0.215-5.285,0.215c-0.344,0-0.657-0.003-0.925-0.01
			c-8.89-0.221-31.369-2.468-38.756-3.206c-1.043-0.104-1.792-0.18-2.169-0.215c-1.243-0.395-6.362-2.148-9.039-5.069
			c-0.944-1.03-3.066-5.487-5.118-9.797c-1.369-2.877-2.785-5.851-4.14-8.462c-2.973-5.731-4.812-9.99-5.047-11.685
			c-0.717-5.202-0.515-11.41,1.61-12.854l1.695-0.737c5.279-2.299,12.509-5.447,16.801-6.421
			C238.071,226.459,260.568,225.036,293.95,225.036 M293.95,224.036c-22.196,0-52.144,0.55-69,4.375
			c-4.901,1.112-13.49,4.974-18.75,7.25c-3.176,2-2.625,10.25-2.125,13.875c0.31,2.241,2.824,7.526,5.149,12.009
			c3.574,6.889,7.73,16.643,9.408,18.474c2.94,3.209,8.545,5.058,9.578,5.379c2.441,0.226,30.791,3.18,41.099,3.436
			c0.274,0.007,0.596,0.01,0.949,0.01c1.688,0,4.091-0.076,5.396-0.221c10.385-1.151,34.045-6.465,40.38-10.768
			c5.652-3.839,5.788-9.471,5.791-9.696c0,0,2.365-13.823,3.021-18.271c0.593-4.025,0.499-20.652-13.312-23.478
			C309.688,226.031,297.649,224.036,293.95,224.036L293.95,224.036z"/>
	</g>
	<path fill="#5B3E02" d="M321.819,180.327c-0.048-15.702-1.475-31.802-4.998-47.146c-1.189-5.182-2.083-10.461-5.044-16.031
		c0.052-0.035,0.103-0.071,0.154-0.105l-12.221-27.342l5.631,2.895l-32.188-33.869l-29.604-22.026l5.604-5.255l-34.343-3.411
		l6.886-8.333l-62.848,5l5.305-10l-47.333,21l-42.076,45l-15.973,35.333c-8.614,23.135-6.554,36.548-7.31,47.892
		c-1.264,18.956-2.84,23.752-2.689,42.492c0.043,5.363-1.698,14.494,1.015,19.165c-0.134-7.184,1.309-15.285,1.988-22.622
		c1.545-16.695,2-33.393,4.81-49.98c1.988-11.74,7.91-25.718,11.096-36.946l0,0c4.872-7.979,14.347-20.873,16.14-22.667l3.333,5.334
		l10.694-19l1.5-10.334c0,0,6.472,16.334,29.14,4.667c0,0,12.334,16.667,28.666,21.667c0,0-7.666-10-5-22.667
		c0,0,32.667,19.667,57.667,19.667c0,0-7.666-5.668-10.333-19c0,0,34.332,19,48.666,22l-6.333-13.167
		c0,0,16.667,16.167,23.667,19.833l-5.541-12c0,0,11.207,8.334,18.207,12l-11.333-22l17.333,22l-3.666-11l12,11
		c0,0,7.114,9.449,12.305,19.65c0.039-0.028,0.079-0.057,0.118-0.084c3.044,10.295,6.599,20.205,8.435,31.047
		c2.81,16.588,3.265,33.285,4.81,49.98c0.68,7.337,2.122,15.438,1.988,22.622c2.713-4.671,0.972-13.802,1.015-19.165
		C321.229,197.718,321.846,189.023,321.819,180.327z"/>
	<path fill="#A28C65" d="M115.826,49.369c10.189-9.026,21.223-15.636,32.61-22.415c-3.496,2.361-6.559,5.707-9.726,8.475
		c4.062-2.693,8.919-5.417,14.246-4.759c-2.711,1.444-5.615,2.658-8.229,4.101c5.409-2.373,11.77-0.003,16.83-2.799
		c-3.051,7.988-9.712,10.546-16.347,14.579c6.41,0.744,10.89,1.203,16.511-2.45c-2.092,12.83-20.198,12.703-28.998,9.204
		c2.827,3.935,7.024,6.421,11.048,7.931c-4.4-0.328-8.134-3.836-12.38-5.266c1.807,2.104,3.596,4.354,5.031,6.596
		c-5.02-0.188-15.56-5.684-19.266-9.197L115.826,49.369z"/>
	<path fill="#A28C65" d="M241.826,50.702c8.015,6.933,7.494,22.04,15.901,29.265c-1.065-2.917-1.833-5.91-1.934-9.028
		c1.366,2.296,3.073,4.2,4.731,6.194c-0.129-1.408,0.097-2.84-0.066-4.244c0.593,1.842,1.838,3.076,2.567,4.428
		c-0.213-2.313,0.26-4.234-0.47-6.363c5.351,5.135,12.495,5.537,18.562,9.422c7.435,4.76,11.521,11.51,15.906,18.826
		c1.606-9.158-11.742-20.924-17.185-27.473c-6.857-8.252-15.85-15.324-24.917-21.08c-4.687-2.975-9.75-6.731-14.86-9.046
		c4.185,6.61,11.356,10.028,17.041,14.997c-3.539-1.099-7.235-3.156-10.394-4.477c2.66,3.484,4.957,6.938,7.116,10.579
		L241.826,50.702z"/>
	<path fill="#A28C65" d="M165.826,64.702c6.253,6.278,16.188,10.833,24.45,13.396c-1.947-1.667-3.672-3.431-5.581-5.165
		c2.588,1.619,5.384,2.202,8.411,1.633c-7.845-8.297-18.627-14.027-26.375-22.51c3.089,4.397,6.671,8.952,10.409,12.543
		c-2.493-0.678-5.106-1.733-7.375-2.979c1.207,3.057,3.255,5.65,6.158,7.262c0.576,1.051-0.643,0.225-1.431,0.486L165.826,64.702z"
		/>
	<path fill="#A28C65" d="M209.826,65.369c4.105,6.305,17.389,13.887,24.431,16.729c-2.644-2.209-4.47-5.098-6.861-7.476
		c1.113,1.061,2.632,1.873,3.777,2.86c-0.32-2.06,0.533-2.039-0.762-4.548c1.996,2.111,3.687,2.764,6.527,3.133
		c-12.144-7.105-21.069-18.223-31.059-27.831c3.848,6.888,9.059,11.968,15.046,17.179c-2.8-0.566-5.891-2.168-8.2-3.295
		c1.75,2.576,3.805,4.621,6.2,6.629c-1.13-0.336-2.58-0.332-3.564-0.613c2.232,2.4,4.645,4.402,7.798,5.232L209.826,65.369z"/>
	<path fill="#A28C65" d="M176.493,32.702c12.415-1.188,23.68-7.461,35.116-9.213c-2.978,3.191-6.312,6.029-10.212,7.915
		c2.473-0.335,4.617-0.311,7.011-0.882c0.232-0.252,0.22-0.27-0.037-0.052c-1.766,2.236-3.848,4.149-6.343,5.616
		c3.242-0.42,6.242-1.657,9.193-2.452c-3.003,10.283-27.317,12.087-36.007,10.918c5.232-2.216,11.22-3.778,16.375-7.215
		c-4.923,1.028-9.727,2.289-14.895,2.03c5.504-0.553,11.666-3.359,15.564-7.361c-3.272,1.146-7.473,1.962-10.434,2.696
		L176.493,32.702z"/>
	<path fill="#A28C65" d="M232.923,39.353c-0.212,0.232-1.754,1.119-1.68,1.35c2.801,3.299,4.946,7.579,7.698,11.251
		c-8.541-0.944-17.834-9.49-21.406-16.9c8.772,6.536,10.925-1.336,19.536-1.434c-2.589,1.501-5.497,3.016-7.836,4.629
		C229.587,38.366,232.661,39.64,232.923,39.353z"/>
</g>
<g id="beard">
	<path fill="#5B3E02" d="M260.231,377.272c-3.693-6.6-9.778-10.262-15.977-12.924c-6.18-2.654-12.688-5.683-18.974-7.878
		c-12.495-4.366-29.787-12.567-43.179-9.497c-13.392-3.07-23.965,5.131-36.46,9.497c-6.285,2.195-12.794,5.224-18.974,7.878
		c-6.198,2.662-12.283,6.324-15.977,12.924c-3.891,6.952-4.292,14.702-5.197,22.712c1.979-1.066,12.054-9.264,11.684-3.511
		c5.33,0.975,12.127-6.672,16.898-8.856c-3.278,8.038,4.297,5.263,8.696,4.537c4.049-0.668,8.206-1.121,11.89-3.345
		c1.893-1.141,3.308-2.819,5.407-3.544c-0.563,9.243,16.244-1.809,18.418-4.594c0.205,4.366,5.541,3.931,6.974,0.642
		c1.433,3.289,6.769,3.725,6.974-0.642c2.174,2.785,18.981,13.837,18.418,4.594c2.1,0.725,3.515,2.403,5.407,3.544
		c3.684,2.224,7.841,2.677,11.89,3.345c4.399,0.726,11.975,3.501,8.696-4.537c4.771,2.185,11.568,9.831,16.898,8.856
		c-0.37-5.753,9.704,2.444,11.684,3.511C264.523,391.975,264.122,384.225,260.231,377.272z"/>
	<path fill="#5B3E02" d="M185.508,496.633c-10.107,0-19.472-0.878-23.855-2.236c-20.627-6.393-38.011-13.727-55.809-28.737
		c-2.008-1.694-4.028-3.312-5.982-4.875c-7.036-5.634-13.684-10.955-18.213-18.459c-3.836-6.353-7.334-13.383-10.717-20.183
		c-2.135-4.29-4.327-8.697-6.603-12.941c-3.299-6.152-4.496-12.939-5.763-20.126c-0.572-3.238-1.156-6.551-1.947-9.911
		c-1.635-6.962-3.525-29.447-4.904-45.865c-0.577-6.871-1.076-12.805-1.429-15.996c-0.069-0.63-0.101-2.136,0.206-5.701
		c0.072,0.656,0.145,1.315,0.218,1.975c0.688,6.188,1.517,11.957,2.533,17.639l0.53,2.963l2.691,1.347
		c0.242,0.121,0.525,0.26,0.842,0.406c-0.51,3.324-0.467,6.989,1.713,9.833c0.617,0.806,1.354,1.474,2.191,1.993
		c-1.441,7.324-0.963,12.295,1.467,15.528c0.58,0.771,1.268,1.435,2.042,1.974c-0.212,7.059,3.076,10.955,6.602,13.102
		c-0.116,1.818-0.074,4.237,0.619,6.385c1.657,5.138,5.318,8.161,10.092,8.368c0.563,1.25,1.311,2.387,2.233,3.397
		c2.475,2.708,5.914,4.199,9.688,4.199c3.412,0,6.715-1.218,9.549-3.521c1.146-0.933,2.276-2.024,3.336-3.165
		c-0.027,3.536,0.761,7.009,3.252,9.749l0.344,0.377c-0.26,3.093-0.348,6.26-0.259,9.435c0.153,5.464,2.751,10.987,7.479,12.233
		c0.198,3.553,0.777,7.639,3.1,11.912c0.813,1.499,2.549,3.285,6.192,3.285c3.424-0.001,12.211-1.289,18.7-2.391
		c12.166-2.067,16.719-2.984,18.156-6.115c6.241-4.357,10.322-10.936,10.987-17.791l21.436-0.001
		c0.666,6.856,4.748,13.435,10.988,17.792c1.438,3.131,5.991,4.048,18.158,6.115c6.493,1.103,15.282,2.391,18.684,2.391
		c3.655,0,5.394-1.786,6.207-3.285c2.322-4.273,2.901-8.36,3.1-11.913c4.729-1.246,7.325-6.77,7.479-12.232
		c0.089-3.169,0.002-6.336-0.259-9.435l0.343-0.377c2.492-2.74,3.28-6.213,3.253-9.749c1.06,1.141,2.189,2.232,3.336,3.164
		c2.834,2.305,6.136,3.522,9.55,3.522c3.772,0,7.212-1.491,9.687-4.2c0.923-1.011,1.67-2.146,2.233-3.396
		c4.773-0.207,8.435-3.23,10.093-8.369c0.692-2.146,0.735-4.565,0.618-6.384c3.525-2.146,6.813-6.043,6.601-13.102
		c0.774-0.54,1.463-1.204,2.042-1.974c2.43-3.235,2.908-8.205,1.468-15.529c0.837-0.519,1.575-1.188,2.191-1.994
		c2.179-2.844,2.223-6.508,1.712-9.831c0.317-0.146,0.6-0.284,0.841-0.405l2.694-1.348l0.529-2.964
		c0.601-3.355,1.135-6.743,1.614-10.229c-0.327,3.965-0.688,9.463-1.091,15.57c-1.008,15.275-2.386,36.162-3.901,42.609
		c-0.794,3.382-1.379,6.701-1.944,9.911c-1.271,7.192-2.468,13.976-5.764,20.124c-2.284,4.26-4.477,8.666-6.596,12.928
		c-3.386,6.804-6.886,13.839-10.725,20.197c-4.529,7.505-11.176,12.825-18.213,18.459c-1.854,1.483-3.955,3.165-5.982,4.875
		c-17.796,15.011-35.181,22.344-55.807,28.737C204.98,495.755,195.616,496.633,185.508,496.633z"/>
	<path fill="#A28C65" d="M236.697,471.966c5.621-3.25,7.984-12.036,11.345-17.351c3.271-5.174,5.997-10.332,8.167-15.998
		c0.012,3.089,0.102,5.979-0.813,8.809c7.881-7.526,11.559-25.627,11.401-36.408c1.979,2.264,2.27,6.319,2.502,9.408
		c3.13-3.214,3.893-11.808,3.398-16.309c0.734,7.212,1.572,14.08,1.003,21.307c-0.629,7.977-3.141,14.433-4.805,21.889
		c3.287-4.67,7.42-12.982,7.802-18.695c-0.877,17.244-12.96,28.726-25.825,38.797c3.59-3.085,4.794-9.937,6.349-14.285
		c-4.153,14.143-17.736,19.395-27.023,26.837L236.697,471.966z"/>
	<path fill="#A28C65" d="M132.234,471.966c-5.621-3.25-7.984-12.036-11.345-17.351c-3.271-5.174-5.997-10.332-8.167-15.998
		c-0.012,3.089-0.102,5.979,0.813,8.809c-7.881-7.526-11.559-25.627-11.401-36.408c-1.979,2.264-2.27,6.319-2.502,9.408
		c-3.13-3.214-3.893-11.808-3.398-16.309c-0.734,7.212-1.572,14.08-1.003,21.307c0.629,7.977,3.141,14.433,4.805,21.889
		c-3.287-4.67-7.42-12.982-7.802-18.695c0.877,17.244,12.96,28.726,25.825,38.797c-3.59-3.085-4.794-9.937-6.349-14.285
		c4.153,14.143,17.736,19.395,27.023,26.837L132.234,471.966z"/>
	<path fill="#A28C65" d="M202.985,455.116c-0.945-5.567-1.498-14.612-6.678-18.221l-9.947-2.244l-10.582,2.244
		c-5.179,3.608-5.732,12.653-6.679,18.221c0.807-1.865,1.906-3.635,3.609-4.712c-0.187,7.261-1.906,14.756,0.732,21.65
		c0.418-2.266,1.396-4.432,3.009-5.945c-0.286,6.979,4.007,15.292,9.91,19.413c5.9-4.121,9.562-12.435,9.275-19.413
		c1.612,1.514,2.59,3.68,3.009,5.945c2.639-6.895,0.919-14.39,0.732-21.65C201.081,451.481,202.18,453.251,202.985,455.116z"/>
</g>
<g id="nose">
	<g>
		<path fill="#8A6754" d="M184.461,358.188c-14.893,0-22.826-3.472-25.76-5.128c-9.26-2.335-15.064-6.986-17.254-13.828
			c-4.32-13.51,8.418-29.316,11.312-32.673c16.031-25.831,14.668-50.172,14.42-51.735l8.249-2.508l2.136,0.207h13.248l2.675-0.205
			l8.255,2.502c-0.244,1.578-1.549,26.008,14.42,51.739c2.896,3.357,15.635,19.166,11.312,32.673
			c-2.189,6.843-7.994,11.494-17.254,13.828C207.287,354.716,199.354,358.188,184.461,358.188z"/>
		<linearGradient id="SVGID_3_" gradientUnits="userSpaceOnUse" x1="184.4614" y1="248.3535" x2="184.4614" y2="352.188">
			<stop  offset="0.4828" style="stop-color:#FFCDAE"/>
			<stop  offset="1" style="stop-color:#FFB59E"/>
		</linearGradient>
		<path fill="url(#SVGID_3_)" d="M202.231,255.967c-2.128,11.379-3.824,33.682,9.099,54.18c0,0,26.975,30.346-3.424,37.3
			c0,0-6.691,4.741-23.445,4.741c-16.752,0-23.443-4.741-23.443-4.741c-30.398-6.954-3.424-37.3-3.424-37.3
			c12.746-20.219,11.144-42.192,8.983-53.708c-0.947-5.047,4.29-7.085,4.29-7.085l13.861-1l12.594,1
			C197.321,249.354,203.122,251.203,202.231,255.967z"/>
		<linearGradient id="SVGID_4_" gradientUnits="userSpaceOnUse" x1="184.4609" y1="295.3564" x2="184.4609" y2="348.7256">
			<stop  offset="0.6552" style="stop-color:#FFCDAE"/>
			<stop  offset="0.8678" style="stop-color:#FFE1CF"/>
			<stop  offset="0.9425" style="stop-color:#FFCDAE"/>
		</linearGradient>
		<path fill="url(#SVGID_4_)" d="M198.768,295.356c0,0,5.637,43.577,0,49.667c-4,4.322-7.377,3.667-14.305,3.667
			c-6.93,0-10.309,0.655-14.309-3.667c-5.635-6.09,0-49.667,0-49.667H198.768z"/>
	</g>
</g>
</svg>
